<svg width="100" height="65" viewBox="0 0 100 65" fill="none" xmlns="http://www.w3.org/2000/svg">
<path d="M1.63013 11.9514C1.75013 11.9314 1.87013 11.9114 2.01013 11.8714C2.57013 11.7314 3.27013 11.5914 4.11013 11.4514C4.95013 11.3114 5.79013 11.2514 6.67013 11.2714C6.85013 11.2714 7.01013 11.1914 7.13013 11.0114C7.23013 10.8314 7.27013 10.6314 7.23013 10.4114C9.85013 9.85138 12.4902 9.39138 15.1902 9.01138C14.9102 9.43138 14.6302 9.81138 14.4102 10.1314C14.0902 10.5714 13.7702 11.0114 13.4702 11.4514C13.1702 11.8914 12.8502 12.4114 12.4702 13.0314C12.0702 13.6714 11.5902 14.5514 11.0102 15.6714C10.4502 16.8114 9.85013 18.0914 9.25013 19.5114C8.63013 20.9514 8.23013 22.4114 8.01013 23.8914C7.81013 25.3914 7.93013 26.4314 8.41013 27.0314C8.87013 27.4914 9.47013 27.6514 10.1902 27.5114C10.5702 27.3914 10.7902 27.1914 10.8302 26.8714C10.8502 26.5714 10.6902 26.3514 10.3102 26.2314C10.1902 26.2114 10.0902 26.1914 10.0102 26.1914C9.89013 26.2114 9.81013 26.1914 9.73013 26.1714C9.65013 26.1314 9.59013 26.0514 9.53013 25.9314C9.45013 25.7114 9.41013 25.4314 9.39013 25.1314C9.39013 24.8314 9.41013 24.5514 9.43013 24.3114C9.77013 22.1114 10.5702 19.7714 11.8302 17.2914C13.0702 14.8114 14.3902 12.6314 15.7502 10.7114C15.7902 10.6714 15.8302 10.6114 15.8702 10.5514L16.3902 9.83138C16.6102 9.55138 16.8102 9.29138 17.0302 9.07138C17.2302 8.83138 17.4102 8.71138 17.5502 8.69138L19.7902 8.41138C21.2702 8.23138 22.6502 8.07138 23.9502 7.97138C25.2502 7.87138 26.8302 7.83138 28.6902 7.87138C28.8302 7.87138 28.9502 7.87138 29.0902 7.89138C29.2102 7.91138 29.3502 7.93138 29.4702 7.93138C29.7702 7.91138 29.9902 7.83138 30.1502 7.65138C30.2902 7.47138 30.3502 7.29138 30.3102 7.09138C30.2702 6.87138 30.1102 6.73138 29.8302 6.63138C29.2302 6.47138 28.2902 6.41138 27.0102 6.47138C25.7302 6.51138 24.4102 6.59138 23.0102 6.73138C21.6302 6.85138 20.4902 6.97138 19.5902 7.07138C19.3102 7.11138 19.0902 7.13138 18.9102 7.15138C18.9302 6.67138 18.7902 6.39138 18.4702 6.31138C18.1702 6.23138 17.8702 6.27138 17.5702 6.45138C17.2702 6.65138 17.0702 6.85138 16.9102 7.05138C16.8102 7.17138 16.7102 7.27138 16.6102 7.35138C16.4902 7.45138 16.3702 7.49138 16.2102 7.51138C15.2502 7.65138 13.7302 7.87138 11.6502 8.23138C9.57013 8.57138 7.51013 8.97138 5.49013 9.43138C3.45013 9.87138 2.03013 10.3314 1.21013 10.7914C0.870131 11.0514 0.750131 11.3114 0.850131 11.6114C0.950131 11.8914 1.21013 12.0114 1.63013 11.9514ZM19.4278 20.5114C19.7678 20.4514 20.1878 20.2314 20.6878 19.9114C21.2078 19.5714 21.6678 19.2314 22.1078 18.8914C22.5478 18.5314 22.8078 18.3114 22.9078 18.1914C22.6878 18.6714 22.3678 19.4514 21.9478 20.4714C21.5078 21.5114 21.1678 22.3914 20.9278 23.1514C20.8278 23.4714 20.9078 23.7314 21.1278 23.9114C21.3478 24.1114 21.5878 24.1714 21.8678 24.1514C22.1478 24.1114 22.3478 23.9514 22.4278 23.6514C22.8678 21.7514 23.7478 19.5314 25.0478 16.9514C26.3478 14.3714 27.8878 11.7114 29.6678 8.95138C29.8878 8.57138 29.9078 8.25138 29.7278 7.99138C29.5478 7.73138 29.3078 7.59138 28.9878 7.57138C28.6678 7.55138 28.4078 7.69138 28.1878 8.01138C27.2278 9.73138 26.4878 11.0514 26.0078 11.9714C25.6478 12.6714 25.3078 13.2714 25.0078 13.7914C24.7078 14.3114 24.3478 14.8514 23.9478 15.4114C23.3478 16.2514 22.4678 17.1714 21.2678 18.1314C20.5678 18.7114 20.0478 19.0314 19.7478 19.1314C19.4278 19.2314 19.2278 19.1714 19.1878 18.9514C19.1478 18.7314 19.1678 18.4514 19.2878 18.0914C19.3878 17.7114 19.5278 17.3714 19.6678 17.0314C19.8278 16.6714 19.9478 16.4314 20.0278 16.2714C20.0878 16.1514 20.0478 16.0114 19.9478 15.8714C19.8478 15.7314 19.7078 15.6314 19.5478 15.5514C19.3878 15.4714 19.2278 15.4714 19.1078 15.5314C18.9278 15.6314 18.7078 15.7914 18.4878 15.9914C17.8478 15.3714 17.1478 15.3914 16.3878 16.0714C14.2878 17.8314 13.1078 19.2514 12.8478 20.3514C12.5878 21.4514 12.8878 21.8914 13.7278 21.6514C14.0478 21.5114 14.4678 21.2314 14.9878 20.7914C15.5278 20.3514 16.0678 19.8714 16.6078 19.3914C17.1278 18.8914 17.5678 18.5114 17.9078 18.2314C17.7278 19.1314 17.8078 19.7514 18.1278 20.1114C18.4678 20.4714 18.9078 20.6114 19.4278 20.5114ZM15.0078 19.1114L15.2478 18.8314C15.4078 18.6514 15.6078 18.4514 15.8278 18.2314C16.0678 17.9914 16.2678 17.8114 16.4678 17.6314C16.6678 17.4714 16.8078 17.3914 16.8878 17.3914C16.8078 17.4914 16.6678 17.6314 16.4878 17.8114C16.2878 18.0114 16.0678 18.2114 15.8478 18.4114C15.6278 18.6314 15.4278 18.7914 15.2678 18.9314C15.1078 19.0714 15.0078 19.1314 15.0078 19.1114ZM34.1324 10.3914C34.5924 9.57138 35.0324 8.87138 35.4524 8.27138C35.6924 7.89138 35.8724 7.61138 35.9724 7.43138C36.1124 7.17138 36.0924 6.93138 35.9724 6.71138C35.8324 6.49138 35.6324 6.41138 35.3324 6.43138C35.0524 6.45138 34.7324 6.69138 34.3724 7.13138C30.9924 11.7514 28.2524 16.6714 26.1924 21.8914L26.1324 22.0314C25.7924 22.8314 25.4524 23.7314 25.1524 24.7514C25.0924 24.9914 25.1724 25.1714 25.3924 25.3114C25.5924 25.4514 25.8324 25.5114 26.0924 25.4914C26.3324 25.4914 26.5124 25.3914 26.5924 25.1914C26.8724 24.3114 27.2724 23.2714 27.7524 22.0514C28.2524 20.8314 28.6924 19.7914 29.0724 18.9314C29.3724 19.4114 29.9924 19.6514 30.9324 19.6314C31.8724 19.6114 33.0124 19.4314 34.3324 19.1114C35.6324 18.7714 36.7124 18.4314 37.5124 18.0914C37.7724 17.9714 37.8924 17.8314 37.9324 17.6314C37.9524 17.4314 37.8724 17.2714 37.7324 17.1314C37.5724 17.0114 37.3724 16.9714 37.1124 17.0314C36.3724 17.3114 35.6124 17.5514 34.8324 17.7514C34.0524 17.9514 33.3524 18.1114 32.7124 18.2114C32.0724 18.3114 31.5124 18.3514 31.0324 18.3314C30.5524 18.3114 30.4524 18.1514 30.7324 17.8714C31.3724 17.3314 32.1724 16.9114 33.1124 16.5914C33.3924 16.4714 33.5124 16.2714 33.5124 16.0114C33.4924 15.7514 33.3924 15.5314 33.1724 15.3514C32.9724 15.1714 32.7124 15.1114 32.4124 15.2114C32.0524 15.3514 31.6724 15.5714 31.2524 15.8714C30.8324 16.1514 30.5324 16.3714 30.3324 16.5314C30.3524 16.3314 30.5724 15.8514 30.9924 15.1114C31.3924 14.3514 31.8324 13.5914 32.2924 12.8114C32.7524 12.0514 33.0724 11.5314 33.2324 11.2514C33.3324 11.1114 33.4124 11.0114 33.4724 10.9714C33.5324 10.9314 33.5924 10.8914 33.6524 10.8914C33.7124 10.8714 33.7924 10.8314 33.8724 10.7714C33.9324 10.7114 34.0324 10.5914 34.1324 10.3914ZM37.6346 15.4314C37.2746 15.8714 36.8346 16.5514 36.2946 17.4514C35.7546 18.3514 35.4946 19.1914 35.5146 19.9514C35.7346 21.0114 36.2546 21.5314 37.0946 21.5114C37.9346 21.4914 38.8746 21.1914 39.9346 20.5914C40.9946 19.9914 41.9546 19.3514 42.8346 18.6514C43.7146 17.9514 44.2946 17.4514 44.6146 17.1514C44.7946 16.9514 44.8746 16.7914 44.8346 16.6314C44.7946 16.4714 44.7146 16.3714 44.5546 16.3114C44.4146 16.2514 44.2546 16.2914 44.0946 16.3914C44.0746 16.4114 44.0346 16.4514 43.9546 16.5114C43.6746 16.7314 43.1746 17.1314 42.4346 17.6714C41.6946 18.2114 40.8946 18.7314 40.0146 19.2314C39.1346 19.7314 38.3146 20.0314 37.5946 20.1314C37.1146 20.1714 36.9146 19.9914 36.9946 19.5914C37.0546 19.1914 37.2946 18.6914 37.6746 18.1114C38.0546 17.5114 38.4546 16.9314 38.8946 16.3714C39.0546 16.1114 39.0546 15.8914 38.8946 15.6714C38.7346 15.4714 38.5346 15.3314 38.2746 15.2714C37.9946 15.2114 37.7946 15.2514 37.6346 15.4314ZM38.8146 14.2114C38.7346 14.5714 38.7546 14.7914 38.8746 14.8514C39.0546 14.8914 39.3346 14.7914 39.7146 14.5114C40.0946 14.2514 40.4546 13.9314 40.8146 13.5514C41.1546 13.1914 41.3746 12.8714 41.4746 12.6314C41.5346 12.4114 41.4546 12.2714 41.2346 12.1914C41.0346 12.1114 40.7946 12.0714 40.5346 12.0914C40.2746 12.0914 40.0746 12.1514 39.9546 12.2314C39.7146 12.4114 39.4746 12.7114 39.2746 13.0914C39.0546 13.4914 38.9146 13.8714 38.8146 14.2114ZM44.2613 15.3314C43.3213 16.9114 42.5413 18.3714 41.9213 19.7514C41.8213 20.0314 41.8413 20.2714 41.9813 20.4914C42.1213 20.6914 42.3213 20.8314 42.5413 20.9114C42.7813 20.9914 42.9813 20.9514 43.1613 20.8314C43.3613 20.6314 43.7213 20.2514 44.2413 19.7114L45.6413 18.2914C46.1213 17.8114 46.5213 17.4114 46.8413 17.1314C47.1813 16.8514 47.3213 16.7714 47.3013 16.9114C47.2413 17.0714 47.1613 17.2514 47.0613 17.4714C46.8013 17.9914 46.6013 18.5514 46.4413 19.1514C46.2813 19.7514 46.3813 20.1714 46.7813 20.4314C47.4413 20.7114 48.3413 20.5314 49.4613 19.9514C50.5813 19.3514 51.5813 18.7114 52.5013 17.9914C52.7213 17.8114 52.8213 17.6314 52.8213 17.4314C52.8013 17.2314 52.7213 17.0914 52.5613 16.9914C52.4013 16.9114 52.2013 16.9314 51.9813 17.0914C51.9613 17.0914 51.9413 17.1114 51.9413 17.1114C51.7213 17.2714 51.3613 17.5314 50.8213 17.8914C50.3013 18.2514 49.7613 18.5714 49.2013 18.8514C48.6413 19.1314 48.2213 19.2314 47.9213 19.1514C47.8413 19.1114 47.8613 18.9114 48.0213 18.5914C48.1613 18.2714 48.3413 17.9114 48.5613 17.4914L49.0013 16.6514C49.1213 16.3914 49.2013 16.1914 49.2413 16.0314C49.2813 15.8314 49.2213 15.6114 49.0813 15.4114C48.9413 15.1914 48.7813 15.0314 48.5613 14.9114C48.3613 14.7914 48.1613 14.7514 47.9813 14.8114C47.7613 14.9114 47.4013 15.1714 46.9213 15.5714C46.4413 15.9514 45.9613 16.3714 45.5013 16.7914C45.0213 17.2114 44.7013 17.5114 44.5013 17.7114C44.5013 17.6314 44.5613 17.5114 44.6613 17.3314C44.7813 17.1714 44.9213 16.9714 45.0813 16.7314C45.2213 16.5514 45.3613 16.3314 45.5013 16.1314C45.6213 15.9314 45.6013 15.7314 45.4613 15.5114C45.3013 15.3114 45.1013 15.1714 44.8613 15.1114C44.6213 15.0514 44.4213 15.1314 44.2613 15.3314ZM48.8527 31.6914C49.6727 30.6914 50.4727 29.5914 51.2327 28.3914C51.9127 27.3514 52.4327 26.6114 52.8327 26.2114L53.9527 25.1314C56.4127 22.6514 59.4527 19.9914 63.0727 17.1314C63.3127 16.9314 63.4327 16.6914 63.4127 16.4114C63.4127 16.1514 63.3327 15.9314 63.1727 15.7714C63.0127 15.6114 62.8327 15.6114 62.6127 15.7714C60.6127 17.3914 58.8927 18.8714 57.4727 20.2114C56.4527 21.1314 55.6927 21.7914 55.1527 22.2314C55.3327 21.9514 55.6727 21.3314 56.1527 20.3514C56.6327 19.3914 57.0327 18.3914 57.3727 17.3514C57.7127 16.3114 57.7527 15.5514 57.5127 15.0914C57.3927 14.9114 57.2327 14.8314 57.0527 14.8514C56.8527 14.8714 56.6727 14.9314 56.5127 15.0514L56.1527 15.2914C56.1327 15.2914 56.1327 15.3114 56.1127 15.3114C56.0127 15.2514 55.8927 15.1314 55.7727 14.9714C55.6727 14.8514 55.5727 14.7314 55.4527 14.6114C55.3327 14.5114 55.1927 14.4514 55.0327 14.4514C54.6127 14.4914 54.0527 14.8114 53.3727 15.4114C52.6727 16.0314 52.0127 16.7114 51.3727 17.4914C50.7127 18.2714 50.2127 18.9314 49.8927 19.4914C49.5327 20.1114 49.3927 20.6314 49.4527 21.0514C49.5327 21.4714 49.8327 21.6314 50.3527 21.5114C50.7127 21.3914 51.2127 21.0714 51.8327 20.5514C52.4527 20.0314 53.0927 19.4514 53.7727 18.8114C54.7327 17.9114 55.5327 17.2114 56.1727 16.7514C55.8327 18.0114 55.3727 19.1514 54.8127 20.1714C54.2327 21.1914 53.5727 22.2114 52.8527 23.2714C52.7327 23.4514 52.5927 23.6514 52.4727 23.8514C51.9727 24.5314 51.2727 25.3114 50.3927 26.1714C49.4327 27.0914 48.4727 28.1514 47.4927 29.3514C47.2127 29.7714 47.1327 30.2314 47.2727 30.6914C47.3927 31.1714 47.6127 31.5114 47.9327 31.7514C48.2527 31.9914 48.5727 31.9714 48.8527 31.6914Z" fill="#3E3E3E"/>
<path d="M20.1191 42.9313H15.1891V58.7413H8.38911V42.9313H3.45911V37.4913H20.1191V42.9313ZM21.9891 41.7413H25.3891L27.2591 43.6453C28.5964 42.4213 30.2737 41.6167 32.2911 41.2313L32.6991 47.6573C32.1551 47.68 31.4411 47.816 30.5571 48.0653C29.6957 48.3146 29.1064 48.632 28.7891 49.0173V58.7413H21.9891V41.7413ZM42.7971 41.2313C48.2371 41.2313 50.9571 43.1013 50.9571 46.8413V58.7413H47.5571L45.6191 56.8033C44.9617 57.574 44.0664 58.1746 42.9331 58.6053C41.7997 59.036 40.7231 59.2513 39.7031 59.2513C38.7057 59.2513 37.9011 59.172 37.2891 59.0133C36.6771 58.8546 36.0764 58.5826 35.4871 58.1973C34.1951 57.3813 33.5491 55.8626 33.5491 53.6413C33.5491 49.5613 36.6317 47.5213 42.7971 47.5213H44.1571V46.2973C43.4317 46.252 42.8311 46.2293 42.3551 46.2293C39.7937 46.2293 37.5951 46.5353 35.7591 47.1473L34.9431 42.2853C37.2097 41.5826 39.8277 41.2313 42.7971 41.2313ZM40.4171 52.8933V54.2873H41.8111C42.8084 54.2873 43.4431 54.174 43.7151 53.9473C44.0097 53.7206 44.1571 53.426 44.1571 53.0633V51.4653H42.7631C41.9471 51.4653 41.3464 51.556 40.9611 51.7373C40.5984 51.896 40.4171 52.2813 40.4171 52.8933ZM56.5801 58.7413L52.3301 41.7413H59.1301L61.0001 52.7913H61.3401L63.2101 41.7413H70.0101L65.7601 58.7413H56.5801ZM78.3241 52.9613V54.1513C79.0041 54.2193 79.6841 54.2533 80.3641 54.2533C82.4721 54.2533 84.6029 53.9133 86.7561 53.2333L87.5721 58.2313C85.0335 58.9114 82.5175 59.2513 80.0241 59.2513C76.8508 59.2513 74.5501 58.5146 73.1221 57.0413C71.7169 55.5453 71.0141 53.2786 71.0141 50.2413C71.0141 47.204 71.7169 44.9486 73.1221 43.4753C74.5501 41.9793 76.8395 41.2313 79.9901 41.2313C83.1635 41.2313 85.3508 41.662 86.5521 42.5233C87.7535 43.3846 88.3541 44.994 88.3541 47.3513C88.3541 49.346 87.6288 50.7853 86.1781 51.6693C84.7501 52.5306 82.1321 52.9613 78.3241 52.9613ZM78.3241 47.6233V49.0173H79.7181C80.5341 49.0173 81.1235 48.938 81.4861 48.7793C81.8715 48.598 82.0641 48.2013 82.0641 47.5893V46.1953H80.6701C79.8541 46.1953 79.2535 46.286 78.8681 46.4674C78.5055 46.626 78.3241 47.0113 78.3241 47.6233ZM97.7188 36.1313V53.8793C98.4442 54.0153 98.9995 54.0946 99.3848 54.1173L99.0788 59.1153C96.1774 59.1153 94.2621 58.9453 93.3328 58.6053C92.1768 58.1746 91.4629 57.6306 91.1908 56.9733C91.0095 56.5653 90.9188 56.0893 90.9188 55.5453V36.6413L97.7188 36.1313Z" fill="#8A53FF"/>
</svg>
