<svg width="24" height="25" viewBox="0 0 24 25" fill="none" xmlns="http://www.w3.org/2000/svg">
<path d="M12 6.00916C11.1524 6.00916 10.3238 6.26051 9.619 6.73143C8.91421 7.20235 8.3649 7.87169 8.04053 8.6548C7.71615 9.43791 7.63128 10.2996 7.79665 11.131C7.96201 11.9623 8.37019 12.726 8.96955 13.3253C9.56892 13.9247 10.3326 14.3329 11.1639 14.4982C11.9953 14.6636 12.857 14.5787 13.6401 14.2544C14.4232 13.93 15.0925 13.3807 15.5635 12.6759C16.0344 11.9711 16.2857 11.1425 16.2857 10.2949C16.2857 9.15823 15.8342 8.06814 15.0305 7.26441C14.2267 6.46068 13.1367 6.00916 12 6.00916ZM12 12.8663C11.4914 12.8663 10.9943 12.7155 10.5714 12.4329C10.1485 12.1504 9.81895 11.7488 9.62432 11.2789C9.42969 10.809 9.37877 10.292 9.47799 9.79321C9.57721 9.2944 9.82211 8.83621 10.1817 8.47659C10.5414 8.11697 10.9995 7.87207 11.4983 7.77285C11.9972 7.67363 12.5142 7.72455 12.9841 7.91918C13.4539 8.1138 13.8555 8.44339 14.1381 8.86626C14.4206 9.28913 14.5714 9.78629 14.5714 10.2949C14.5708 10.9766 14.2996 11.6303 13.8175 12.1124C13.3354 12.5945 12.6818 12.8656 12 12.8663Z" fill="#8A53FF"/>
<path d="M12 0.866333C9.62663 0.866333 7.30655 1.57012 5.33316 2.8887C3.35977 4.20727 1.8217 6.08142 0.913451 8.27413C0.0051994 10.4668 -0.232441 12.8796 0.230582 15.2074C0.693605 17.5352 1.83649 19.6734 3.51472 21.3516C5.19295 23.0298 7.33115 24.1727 9.65892 24.6358C11.9867 25.0988 14.3995 24.8611 16.5922 23.9529C18.7849 23.0446 20.6591 21.5066 21.9776 19.5332C23.2962 17.5598 24 15.2397 24 12.8663C23.9964 9.68485 22.7309 6.63471 20.4813 4.38506C18.2316 2.13541 15.1815 0.869963 12 0.866333ZM6.85715 21.7609V20.5806C6.85783 19.8988 7.12896 19.2452 7.61105 18.7631C8.09314 18.281 8.7468 18.0099 9.42858 18.0092H14.5714C15.2532 18.0099 15.9069 18.281 16.389 18.7631C16.871 19.2452 17.1422 19.8988 17.1429 20.5806V21.7609C15.5821 22.6722 13.8073 23.1525 12 23.1525C10.1927 23.1525 8.41786 22.6722 6.85715 21.7609ZM18.8503 20.5172C18.8332 19.3929 18.3751 18.3203 17.5748 17.5305C16.7744 16.7408 15.6958 16.297 14.5714 16.2949H9.42858C8.30416 16.297 7.22558 16.7408 6.42522 17.5305C5.62487 18.3203 5.1668 19.3929 5.14972 20.5172C3.59535 19.1293 2.4992 17.3019 2.00643 15.2772C1.51367 13.2524 1.64752 11.1258 2.39027 9.17878C3.13301 7.2318 4.44962 5.55633 6.16575 4.37425C7.88188 3.19216 9.91658 2.55921 12.0004 2.55921C14.0843 2.55921 16.119 3.19216 17.8351 4.37425C19.5512 5.55633 20.8678 7.2318 21.6106 9.17878C22.3533 11.1258 22.4872 13.2524 21.9944 15.2772C21.5017 17.3019 20.4055 19.1293 18.8511 20.5172H18.8503Z" fill="#8A53FF"/>
</svg>
