<?xml version="1.0" encoding="iso-8859-1"?>
<!-- Generator: Adobe Illustrator 16.0.0, SVG Export Plug-In . SVG Version: 6.00 Build 0)  -->
<!DOCTYPE svg PUBLIC "-//W3C//DTD SVG 1.1//EN" "http://www.w3.org/Graphics/SVG/1.1/DTD/svg11.dtd">
<svg version="1.1" id="Capa_1" xmlns="http://www.w3.org/2000/svg" xmlns:xlink="http://www.w3.org/1999/xlink" x="0px" y="0px"
	 width="45.86px" height="45.86px" viewBox="0 0 45.86 45.86" style="enable-background:new 0 0 45.86 45.86;" xml:space="preserve"
	>
<g>
	<g>
		<path d="M33.723,2.719c-3.987,0-7.715,1.958-9.967,5.237l-0.822,1.199l-0.826-1.199c-2.254-3.279-5.98-5.237-9.969-5.237
			C5.446,2.719,0,8.166,0,14.862c0,6.996,11.418,18.798,22.105,27.513l0.828,0.767l0.771-0.722
			C34.442,33.69,45.86,21.902,45.86,14.862C45.862,8.166,40.416,2.719,33.723,2.719z M33.723,5.699c2.586,0,4.92,1.081,6.588,2.811
			l-1.715,0.108l-2.227,0.995l0.021,1.155l-0.688,0.205l-0.151-1.156l-0.257-0.4l-0.771-0.188l-0.18,0.691l0.232,0.565l-2.738-0.18
			l-1.307,0.604l-0.197-0.571l-0.324,0.086l-0.24,0.633l-0.682,0.533l-1.67-0.047l-0.076-0.368l1.746-0.075l0.357-0.308
			l-2.104-0.976l-1.257,0.038C27.739,7.362,30.561,5.699,33.723,5.699z M32.43,17.305l-0.033-0.795l0.173-0.393l0.688-0.059
			l0.592,0.244l0.025,0.412l-0.838-0.047l-0.041,0.38l1.051,0.702v0.514l0.453,0.333v0.358l-0.232,0.223l-0.537-0.042l-0.104-0.162
			l-0.848-0.061l0.061-0.273l0.447-0.386v-0.324L32.43,17.305z M30.312,18.305h-0.922l-1.33-0.056l-0.399,0.056v-0.908l0.299-0.335
			l0.324-0.101l0.705-0.082l0.153-0.24l0.289,0.143l0.041,0.827l0.771,0.319L30.312,18.305z M25.812,12.478l0.039,0.551
			l-0.813,1.212L24.6,14.237c0.074-1.085,0.334-2.123,0.762-3.074l0.568-0.396h0.326v0.409L25.235,11.8v0.409L25.812,12.478z
			 M3.893,16.461v0.424h-0.5c-0.084-0.229-0.152-0.451-0.211-0.668h0.535v0.244H3.893z M5.459,17.73v0.399H4.805l-0.18-0.259v-0.372
			h0.053L5.459,17.73z M4.858,17.183l0.184-0.195l0.316,0.195L5.106,17.39L4.858,17.183z M3.832,17.936l0.473-0.064v0.398
			L4.1,18.475C4.004,18.292,3.916,18.113,3.832,17.936z M4.459,17.052v0.41L4.151,17.66l-0.385,0.07c0,0,0-0.615,0-0.679
			L4.459,17.052L4.459,17.052z M4.112,16.885v-0.488l0.424,0.386L4.112,16.885z M23.588,38.475l-0.654,0.566l-0.656-0.566
			c-6.668-5.77-14.174-13.277-17.523-18.83l0.021-0.142l1.266-1.315l1.344-0.745l-0.117-0.098l0.91-0.857l0.334,0.09l0.152,0.19
			l0.346-0.383l0.084-0.04l-0.377-0.051l-0.385-0.127v-0.373l0.205-0.168h0.447l0.207,0.091l0.178,0.359l0.219-0.033v-0.031
			l0.063,0.021l0.629-0.099l0.09-0.309l0.357,0.091v0.335l-0.332,0.229l0.051,0.366l1.143,0.353c0,0,0.002,0.004,0.002,0.013
			l0.264-0.022l0.018-0.495l-0.904-0.411l-0.053-0.239l0.752-0.256l0.031-0.718l-0.783-0.479l-0.053-1.214l-1.078,0.53H9.391
			l0.104-0.924L8.03,12.437l-0.607,0.457v1.399l-1.09,0.345L5.895,15.55L5.42,15.624v-1.165l-1.025-0.142l-0.512-0.333l-0.207-0.755
			l1.836-1.075l0.896-0.272l0.088,0.603l0.502-0.027l0.039-0.303l0.523-0.074l0.006-0.106l-0.223-0.092l-0.051-0.32l0.643-0.054
			l0.387-0.404l0.023-0.029l0.004,0.001l0.121-0.122l1.35-0.17l0.596,0.508l-1.564,0.834l1.992,0.47l0.258-0.666h0.871l0.307-0.582
			l-0.613-0.153v-0.734L9.735,9.606L8.401,9.759l-0.754,0.394l0.051,0.958l-0.783-0.119l-0.123-0.529l0.754-0.685L6.179,9.709
			L5.784,9.828l-0.17,0.463l0.514,0.086L6.024,10.89l-0.873,0.053l-0.135,0.341L3.75,11.316c0,0-0.002-0.045-0.006-0.112
			c0.09-0.208,0.189-0.412,0.295-0.611c0.281-0.005,0.615-0.011,0.615-0.011l0.754-0.736L4.996,9.642l-0.547,0.531l-0.16-0.009
			c1.604-2.668,4.518-4.463,7.85-4.463c4.912,0,9.018,3.997,9.152,8.91l0.006,0.203l-0.441,0.621l-1.064,0.168l-0.152,0.909
			l0.447,0.106l-0.127,0.585l-1.057-0.211l-0.971,0.211l-0.205,0.54l0.168,1.132l0.568,0.265l0.953-0.004l0.645-0.06l0.199-0.513
			l1.006-1.309l0.662,0.136l0.652-0.591l0.123,0.463l1.605,1.083l-0.197,0.265l-0.723-0.04l0.278,0.394l0.443,0.1l0.522-0.218
			l-0.01-0.628l0.234-0.115l-0.188-0.199L23.6,17.307l-0.283-0.795h0.891l0.283,0.281l0.768,0.66l0.033,0.802l0.795,0.846
			l0.295-1.16l0.553-0.301l0.103,0.95l0.539,0.59l1.621-0.026l0.481,0.359v0.846l-0.59,0.539h-1.643l-1-0.745l-1.051,0.104v0.642
			h-0.334l-0.359-0.257l-1.82-0.463V19l-2.309,0.18l-0.719,0.383h-0.914l-0.451-0.045l-1.113,0.618v1.164l-2.273,1.642l0.189,0.7
			h0.461l-0.121,0.667l-0.324,0.119l-0.016,1.745l1.965,2.238h0.855l0.051-0.137h1.539l0.443-0.41h0.873l0.479,0.479l1.297,0.135
			l-0.17,1.729l1.445,2.55l-0.762,1.45l0.053,0.687l0.598,0.599v1.645l0.459,0.617C24.141,37.994,23.864,38.236,23.588,38.475z
			 M31.084,31.529l-0.219-0.385l1.922-1.832l2.113-3.023l-0.41-0.188l-2.195,0.462l-0.566-0.279l-2.307-4.349l0.162-0.188
			l2.289,2.779l0.055,0.859l0.529,0.529l1.076-0.068l2.248-1.629l0.707-0.46l-0.014-0.566l-0.752-0.097c0,0-2.633-1.24-2.633-1.295
			c0-0.056,0.016-1.065,0.016-1.065h0.58l0.088,0.736l1.221,0.699l1.393,0.068l2.64,0.431
			C36.907,25.462,34.102,28.533,31.084,31.529z"/>
		<polygon points="17.918,14.142 17.959,14.477 17.465,14.579 17.397,15.287 17.996,15.287 18.789,15.211 19.2,14.724 
			18.764,14.552 18.528,14.279 18.164,13.699 17.996,12.875 17.319,13.012 17.129,13.302 17.129,13.63 17.455,13.854 		"/>
		<polygon points="17.344,14.416 17.381,13.971 16.987,13.801 16.43,13.928 16.02,14.586 16.02,15.015 16.498,15.015 		"/>
	</g>
</g>
<g>
</g>
<g>
</g>
<g>
</g>
<g>
</g>
<g>
</g>
<g>
</g>
<g>
</g>
<g>
</g>
<g>
</g>
<g>
</g>
<g>
</g>
<g>
</g>
<g>
</g>
<g>
</g>
<g>
</g>
</svg>
