<svg width="543" height="470" xmlns="http://www.w3.org/2000/svg">
 <!-- Created with SVG Editor - http://github.com/mzalive/SVG Editor/ -->

 <g>
  <title>Layer 1</title>
  <g stroke="null" id="svg_23">
   <g stroke="null" transform="matrix(1.0452441211914214,0,0,1.0452441211914214,-1662.3342766216952,-2182.110286367392) " id="svg_5">
    <g stroke="null" id="svg_6">
     <path fill="#8a53ff" stroke="null" id="svg_7" d="m1972.359657,2089.26528c-64.782,0 -103.119,45.201 -122.435,78.098c-19.316,-32.897 -57.652,-78.098 -122.435,-78.098c-76.146,0 -133.565,61.12 -133.565,142.168c0,102.434 105.592,179.468 245.136,299.028c3.125,2.679 6.994,4.021 10.864,4.021s7.739,-1.342 10.864,-4.021c139.563,-119.576 245.136,-196.602 245.136,-299.028c0,-81.048 -57.419,-142.168 -133.565,-142.168z"/>
    </g>
   </g>
   <g stroke="null" transform="matrix(0.06781683510376357,0,0,0.06781683510376357,0,0) " id="svg_8"/>
   <g stroke="null" transform="matrix(0.06781683510376357,0,0,0.06781683510376357,0,0) " id="svg_9"/>
   <g stroke="null" transform="matrix(0.06781683510376357,0,0,0.06781683510376357,0,0) " id="svg_10"/>
   <g stroke="null" transform="matrix(0.06781683510376357,0,0,0.06781683510376357,0,0) " id="svg_11"/>
   <g stroke="null" transform="matrix(0.06781683510376357,0,0,0.06781683510376357,0,0) " id="svg_12"/>
   <g stroke="null" transform="matrix(0.06781683510376357,0,0,0.06781683510376357,0,0) " id="svg_13"/>
   <g stroke="null" transform="matrix(0.06781683510376357,0,0,0.06781683510376357,0,0) " id="svg_14"/>
   <g stroke="null" transform="matrix(0.06781683510376357,0,0,0.06781683510376357,0,0) " id="svg_15"/>
   <g stroke="null" transform="matrix(0.06781683510376357,0,0,0.06781683510376357,0,0) " id="svg_16"/>
   <g stroke="null" transform="matrix(0.06781683510376357,0,0,0.06781683510376357,0,0) " id="svg_17"/>
   <g stroke="null" transform="matrix(0.06781683510376357,0,0,0.06781683510376357,0,0) " id="svg_18"/>
   <g stroke="null" transform="matrix(0.06781683510376357,0,0,0.06781683510376357,0,0) " id="svg_19"/>
   <g stroke="null" transform="matrix(0.06781683510376357,0,0,0.06781683510376357,0,0) " id="svg_20"/>
   <g stroke="null" transform="matrix(0.06781683510376357,0,0,0.06781683510376357,0,0) " id="svg_21"/>
   <g stroke="null" transform="matrix(0.06781683510376357,0,0,0.06781683510376357,0,0) " id="svg_22"/>
  </g>
 </g>
</svg>